<?xml version="1.0" encoding="UTF-8"?>
<svg width="33px" height="18px" viewBox="0 0 33 18" version="1.1" xmlns="http://www.w3.org/2000/svg" xmlns:xlink="http://www.w3.org/1999/xlink">
    <!-- Generator: Sketch 43.2 (39069) - http://www.bohemiancoding.com/sketch -->
    <title>Icon/Discover1</title>
    <desc>Created with Sketch.</desc>
    <defs></defs>
    <g id="V5" stroke="none" stroke-width="1" fill="none" fill-rule="evenodd">
        <g id="Nav_Mobile_Dropdown2" transform="translate(-17.000000, -203.000000)" fill="#FFFFFF">
            <g id="Group-5" transform="translate(17.000000, 57.000000)">
                <g id="Group-3" transform="translate(0.000000, 146.666667)">
                    <g id="Icon/Discover1" transform="translate(0.000000, 0.000000)">
                        <g id="Page-1">
                            <g id="Group-3" transform="translate(0.000000, 0.086541)">
                                <path d="M31.0638649,14.68386 C31.0279702,14.7308974 30.9698825,14.7484886 30.9173912,14.7205721 C29.8874439,14.192071 29.0504789,13.9867127 28.1556193,13.7670138 C27.7401281,13.6652908 27.3105491,13.5603171 26.8416018,13.417293 C26.8205667,13.4109831 26.8003035,13.3974073 26.783707,13.3765655 L20.1858298,5.37830176 C20.1389351,5.32208637 20.139514,5.2335567 20.1869877,5.17676769 L22.0143386,2.98551495 C22.0347947,2.96046659 22.0726193,2.94383143 22.1139175,2.94058088 C22.1469175,2.94344901 22.1781807,2.96123143 22.2003737,2.99029516 L31.0638649,14.4901655 C31.1061281,14.5450424 31.106514,14.6282182 31.0638649,14.68386 M4.66463684,12.8918512 L2.46251404,15.2680029 C2.42526842,15.3081567 2.36853158,15.3188644 2.32298772,15.2934336 C1.88704035,15.0542314 1.48988246,14.7781259 1.14309298,14.4737215 C1.11472456,14.4486732 1.09658421,14.4108138 1.09368947,14.3700864 C1.09060175,14.3289765 1.1033386,14.2878666 1.12823333,14.2576556 L6.58867193,7.50779407 C6.61260175,7.47911275 6.6429,7.46572813 6.69982982,7.46438967 L10.1540228,8.72483802 C10.2752158,8.76078527 10.4037421,8.7091589 10.4651105,8.6003611 C10.526286,8.49175451 10.5025491,8.35561385 10.4087596,8.27301165 L10.0469175,7.95158967 C9.99905789,7.89919846 9.99365439,7.8152578 10.0347596,7.75598308 L14.9521456,0.674565495 C14.9745316,0.641868791 15.0088825,0.621983077 15.0507596,0.619497363 C15.0820228,0.619497363 15.1177246,0.637088571 15.1395316,0.662710549 L25.9384439,13.2201567 C25.9797421,13.2685325 25.9876544,13.3385149 25.9575491,13.3968336 C25.9351632,13.4423413 25.8957947,13.4631831 25.8351982,13.4675809 C24.9256719,13.3371765 23.9453211,13.3518996 22.7044439,13.51806 C22.6743386,13.51806 22.6438474,13.5046754 22.6208825,13.4809655 L18.7857421,9.5313567 C18.6933035,9.4355611 18.5425842,9.4225589 18.4349,9.50152813 C18.3264439,9.58030615 18.2942158,9.72600725 18.3590579,9.84283582 L20.5189175,13.7228446 C20.5422684,13.7654842 20.5449702,13.8182578 20.5256719,13.8645303 C20.5084965,13.9056402 20.4756895,13.9345127 20.436707,13.943882 C19.1975667,14.226871 17.8931982,14.5874908 16.5127947,14.9693347 C13.8280228,15.7112248 11.4487421,16.3412578 7.47928596,16.3653501 C6.06182982,16.3735721 4.87247895,16.2364754 4.03879474,15.9936402 C4.00309298,15.9829325 3.97395263,15.9557809 3.95697018,15.9173479 C3.93844386,15.8754732 3.93805789,15.8282446 3.95658421,15.7871347 L5.10675965,13.1767523 C5.15905789,13.0580116 5.11737368,12.9193853 5.00737368,12.848638 C4.89795263,12.7778908 4.78544386,12.7692864 4.66463684,12.8918512 M6.35940877,7.03091934 C4.96182982,8.59538967 1.2309,12.9115457 0.0562157895,14.2677897 C0.0145315789,14.3157831 -0.00534561404,14.3786908 0.00121578947,14.4417897 C0.00797017544,14.5046974 0.0400052632,14.5624424 0.0907596491,14.6010666 C2.35714561,16.3313149 5.25072456,17.2087721 8.69121579,17.2087721 C10.8599526,17.2087721 13.6761456,16.7141149 16.8350754,15.7775743 C20.6839175,14.6360578 22.9261807,14.3079435 25.7336895,14.4154029 C28.1440404,14.5068007 30.5559351,15.2961105 32.6841456,15.992493 C32.7812158,16.0249985 32.888514,15.9901985 32.9479526,15.9075963 C33.0075842,15.8255677 33.0058474,15.7144754 32.9439,15.6334029 C30.8280404,12.8759809 23.8299175,3.76086659 22.6268649,2.24419846 C22.5103035,2.09658527 22.2750579,1.94782484 22.0133737,1.94782484 C21.8194263,1.94782484 21.6395667,2.02794132 21.4703211,2.19658747 L19.4139,4.50983143 C19.4054088,4.51900945 19.3861105,4.54099846 19.3357421,4.54654352 C19.3075667,4.5461611 19.2797772,4.53258527 19.2531456,4.50160945 C18.9798825,4.18343802 16.5593035,1.37037429 15.7804263,0.519303956 C15.629514,0.354290769 15.4017947,0.104572088 15.113286,0.104572088 C14.9158649,0.104572088 14.7082158,0.223503956 14.4903386,0.465191868 L8.90774211,7.17929736 C8.8869,7.20472813 8.85775965,7.22212813 8.80179474,7.21524462 L7.35288246,6.79860066 C6.92311053,6.67507978 6.63035614,6.72747099 6.35940877,7.03091934" id="Fill-1"></path>
                            </g>
                            <path d="M30.8567368,15.9333521 C29.0662456,15.5383147 27.0557544,15.3377367 24.8808421,15.3377367 C21.185807,15.3377367 18.2495789,15.9266598 18.2204386,15.932396 C18.1515439,15.9463543 18.1119825,15.9830664 18.1264561,16.0192048 C18.1407368,16.0557257 18.204807,16.0819213 18.2789123,16.0819213 L30.7938246,16.0819213 C30.8671579,16.0819213 30.9308421,16.0566818 30.9457018,16.0203521 C30.9611404,15.984596 30.9238947,15.947884 30.8567368,15.9333521" id="Fill-4"></path>
                        </g>
                    </g>
                </g>
            </g>
        </g>
    </g>
</svg>